<svg width="168px" height="181px" viewBox="-5 -5 168 181" version="1.1" xmlns="http://www.w3.org/2000/svg" xmlns:xlink="http://www.w3.org/1999/xlink">
    <defs>
        <ellipse id="path-1" cx="74" cy="27.8547636" rx="5" ry="4.85476359"></ellipse>
        <mask id="mask-2" maskContentUnits="userSpaceOnUse" maskUnits="objectBoundingBox" x="-5" y="-5" width="20" height="19.7095272">
            <rect x="64" y="18" width="20" height="19.7095272" fill="white"></rect>
            <use xlink:href="#path-1" fill="black"></use>
        </mask>
        <path d="M13.0039196,171 C1.95605986,171 -2.49268738,163.261029 3.06240786,153.723036 L43.4793551,84.3278997 C44.8714688,81.9376667 46,77.7672445 46,75.0092102 L46,33.9914083 C46,32.3392991 47.3383504,31 49.0090115,31 L109.990989,31 C111.65282,31 113,32.3360443 113,33.9914083 L113,75.0092102 C113,77.7655473 114.110151,81.9427641 115.481811,84.3431687 L155.081463,153.642561 C160.55932,163.22881 156.054802,171 144.99608,171 L13.0039196,171 Z" id="path-3"></path>
        <mask id="mask-4" maskContentUnits="userSpaceOnUse" maskUnits="objectBoundingBox" x="-5" y="-5" width="166.742023" height="150">
            <rect x="-4.32972139" y="26" width="166.742023" height="150" fill="white"></rect>
            <use xlink:href="#path-3" fill="black"></use>
        </mask>
        <path d="M27.9958372,157 C21.3707192,157 18.8109268,152.422952 22.2807468,146.773024 L56.8620994,90.4640072 C58.595114,87.6421294 60,82.6650371 60,79.3560316 L60,47.7932465 C60,46.8028638 60.7967125,46 61.7770911,46 L97.2229089,46 C98.2043692,46 99,46.8039553 99,47.7932465 L99,79.3560316 C99,82.6689193 100.381985,87.6571728 102.092454,90.5071099 L135.827712,146.715898 C139.236572,152.395651 136.626245,157 130.004163,157 L27.9958372,157 Z" id="path-5"></path>
        <mask id="mask-6" maskContentUnits="userSpaceOnUse" maskUnits="objectBoundingBox" x="-5" y="-5" width="126.592019" height="121">
            <rect x="15.7327537" y="41" width="126.592019" height="121" fill="white"></rect>
            <use xlink:href="#path-5" fill="black"></use>
        </mask>
        <ellipse id="path-7" cx="62" cy="99" rx="4" ry="4"></ellipse>
        <mask id="mask-8" maskContentUnits="userSpaceOnUse" maskUnits="objectBoundingBox" x="-5" y="-5" width="18" height="18">
            <rect x="53" y="90" width="18" height="18" fill="white"></rect>
            <use xlink:href="#path-7" fill="black"></use>
        </mask>
        <ellipse id="path-9" cx="84" cy="82" rx="10" ry="10"></ellipse>
        <mask id="mask-10" maskContentUnits="userSpaceOnUse" maskUnits="objectBoundingBox" x="-5" y="-5" width="30" height="30">
            <rect x="69" y="67" width="30" height="30" fill="white"></rect>
            <use xlink:href="#path-9" fill="black"></use>
        </mask>
        <ellipse id="path-11" cx="69" cy="57.8547636" rx="5" ry="4.85476359"></ellipse>
        <mask id="mask-12" maskContentUnits="userSpaceOnUse" maskUnits="objectBoundingBox" x="-5" y="-5" width="20" height="19.7095272">
            <rect x="59" y="48" width="20" height="19.7095272" fill="white"></rect>
            <use xlink:href="#path-11" fill="black"></use>
        </mask>
        <ellipse id="path-13" cx="91.5" cy="7.5" rx="7.5" ry="7.5"></ellipse>
        <mask id="mask-14" maskContentUnits="userSpaceOnUse" maskUnits="objectBoundingBox" x="-5" y="-5" width="25" height="25">
            <rect x="79" y="-5" width="25" height="25" fill="white"></rect>
            <use xlink:href="#path-13" fill="black"></use>
        </mask>
    </defs>
    <g id="Oval-Copy-3" stroke="none" fill="none">
        <use fill="#5bc0de" fill-rule="evenodd" xlink:href="#path-1"></use>
        <use stroke="#979797" mask="url(#mask-2)" stroke-width="10" xlink:href="#path-1"></use>
    </g>
    <g id="Path" stroke="none" fill="none">
        <use fill="#FFFFFF" fill-rule="evenodd" xlink:href="#path-3"></use>
        <use stroke="#979797" mask="url(#mask-4)" stroke-width="10" xlink:href="#path-3"></use>
    </g>
    <path d="M27.9307009,157 C21.3054665,157 18.5167565,152.293536 21.70414,146.483812 L42.4862697,108.603709 C42.4862697,108.603709 48.4507907,116.359867 65.905155,114.945904 C83.3595193,113.531942 88.3216347,106.135003 96.7862708,105.123009 C105.250907,104.111015 117.339318,109.675788 117.339318,109.675788 L137.148495,146.438426 C140.291546,152.271422 137.467607,157 130.843444,157 L27.9307009,157 Z" id="Path" stroke="none" fill="#5bc0de" fill-rule="evenodd"></path>
    <use id="Path" stroke="#979797" mask="url(#mask-6)" stroke-width="10" fill="none" xlink:href="#path-5"></use>
    <path d="M43.7948469,109.615818 C43.7948469,109.615818 52.240927,115.743759 66.6681116,114.790709 C81.0952962,113.837658 86.4275416,105 95.8622244,105 C105.296907,105 115.5,109.615818 115.5,109.615818" id="Line" stroke="#979797" stroke-width="5" stroke-linecap="square" fill="none"></path>
    <g id="Oval" stroke="none" fill="none">
        <use fill="#5bc0de" fill-rule="evenodd" xlink:href="#path-7"></use>
        <use stroke="#979797" mask="url(#mask-8)" stroke-width="10" xlink:href="#path-7"></use>
    </g>
    <g id="Oval-Copy" stroke="none" fill="none">
        <use fill="#5bc0de" fill-rule="evenodd" xlink:href="#path-9"></use>
        <use stroke="#979797" mask="url(#mask-10)" stroke-width="10" xlink:href="#path-9"></use>
    </g>
    <g id="Oval-Copy-3" stroke="none" fill="none">
        <use fill="#5bc0de" fill-rule="evenodd" xlink:href="#path-11"></use>
        <use stroke="#979797" mask="url(#mask-12)" stroke-width="10" xlink:href="#path-11"></use>
    </g>
    <g id="Oval-Copy" stroke="none" fill="none">
        <use fill="#5bc0de" fill-rule="evenodd" xlink:href="#path-13"></use>
        <use stroke="#979797" mask="url(#mask-14)" stroke-width="10" xlink:href="#path-13"></use>
    </g>
</svg>
